<?xml version="1.0" standalone="no"?><!DOCTYPE svg PUBLIC "-//W3C//DTD SVG 1.1//EN" "http://www.w3.org/Graphics/SVG/1.1/DTD/svg11.dtd"><svg t="1657521782515" class="icon" viewBox="0 0 1024 1024" version="1.1" xmlns="http://www.w3.org/2000/svg" p-id="6488" xmlns:xlink="http://www.w3.org/1999/xlink" width="200" height="200"><defs><style type="text/css">@font-face { font-family: feedback-iconfont; src: url("//at.alicdn.com/t/font_1031158_u69w8yhxdu.woff2?t=1630033759944") format("woff2"), url("//at.alicdn.com/t/font_1031158_u69w8yhxdu.woff?t=1630033759944") format("woff"), url("//at.alicdn.com/t/font_1031158_u69w8yhxdu.ttf?t=1630033759944") format("truetype"); }
</style></defs><path d="M931.84 466.944h-184.32L655.36 624.64l92.16 157.696h184.32l92.16-157.696-92.16-157.696z m-34.816 256h-116.736l-57.344-98.304 57.344-98.304h116.736l57.344 98.304-57.344 98.304z" p-id="6489"></path><path d="M839.68 583.68c-22.528 0-43.008 18.432-43.008 40.96s18.432 40.96 43.008 40.96c22.528 0 43.008-18.432 43.008-40.96-2.048-22.528-20.48-40.96-43.008-40.96zM778.24 882.688H223.232c-20.48 0-38.912 18.432-38.912 38.912 0 20.48 18.432 38.912 38.912 38.912H778.24c20.48 0 38.912-18.432 38.912-38.912 0-20.48-16.384-38.912-38.912-38.912z" p-id="6490"></path><path d="M577.536 624.64l131.072-223.232h260.096V137.216c0-47.104-38.912-83.968-83.968-83.968H118.784c-47.104 0-83.968 38.912-83.968 83.968V696.32c0 47.104 38.912 83.968 83.968 83.968h550.912l-92.16-155.648z m-100.352-206.848H223.232c-20.48 0-38.912-18.432-38.912-38.912 0-20.48 18.432-38.912 38.912-38.912h251.904c20.48 0 38.912 18.432 38.912 38.912 2.048 20.48-16.384 38.912-36.864 38.912z m0-161.792H223.232c-20.48 0-38.912-18.432-38.912-38.912 0-20.48 18.432-38.912 38.912-38.912h251.904c20.48 0 38.912 18.432 38.912 38.912 2.048 20.48-16.384 38.912-36.864 38.912z" p-id="6491"></path></svg>