<?xml version="1.0" standalone="no"?><!DOCTYPE svg PUBLIC "-//W3C//DTD SVG 1.1//EN" "http://www.w3.org/Graphics/SVG/1.1/DTD/svg11.dtd"><svg t="1657521749538" class="icon" viewBox="0 0 1024 1024" version="1.1" xmlns="http://www.w3.org/2000/svg" p-id="5648" xmlns:xlink="http://www.w3.org/1999/xlink" width="200" height="200"><defs><style type="text/css">@font-face { font-family: feedback-iconfont; src: url("//at.alicdn.com/t/font_1031158_u69w8yhxdu.woff2?t=1630033759944") format("woff2"), url("//at.alicdn.com/t/font_1031158_u69w8yhxdu.woff?t=1630033759944") format("woff"), url("//at.alicdn.com/t/font_1031158_u69w8yhxdu.ttf?t=1630033759944") format("truetype"); }
</style></defs><path d="M839.68 16.384H182.272c-90.112 0-163.84 73.728-163.84 163.84v657.408c0 90.112 73.728 163.84 163.84 163.84H839.68c90.112 0 163.84-73.728 163.84-163.84v-655.36c0-92.16-73.728-165.888-163.84-165.888zM307.2 796.672c0 22.528-18.432 40.96-40.96 40.96s-40.96-18.432-40.96-40.96v-409.6c0-10.24 4.096-20.48 12.288-28.672 8.192-8.192 18.432-12.288 28.672-12.288 10.24 0 20.48 4.096 28.672 12.288 8.192 8.192 12.288 18.432 12.288 28.672v409.6z m245.76 0c0 22.528-18.432 40.96-40.96 40.96s-40.96-18.432-40.96-40.96v-573.44c0-22.528 18.432-40.96 40.96-40.96s40.96 18.432 40.96 40.96v573.44z m245.76 0c0 22.528-18.432 40.96-40.96 40.96s-40.96-18.432-40.96-40.96v-163.84c0-22.528 18.432-40.96 40.96-40.96s40.96 18.432 40.96 40.96v163.84z" p-id="5649"></path></svg>