<?xml version="1.0" encoding="UTF-8"?>
<svg width="22px" height="22px" viewBox="0 0 22 22" version="1.1" xmlns="http://www.w3.org/2000/svg" xmlns:xlink="http://www.w3.org/1999/xlink">
    <title>切片</title>
    <g id="独立站修改" stroke="none" stroke-width="1" fill="none" fill-rule="evenodd">
        <g id="个人中心" transform="translate(-270.000000, -229.000000)">
            <g id="Group-2-Copy-2" transform="translate(16.000000, 55.562025)">
                <g id="icon/个人中心-copy-2" transform="translate(254.000000, 173.437975)">
                    <rect id="Rectangle" fill="#FFFFFF" x="0" y="0" width="22" height="22"></rect>
                    <g id="tongxunlu" transform="translate(4.000000, 4.000000)" fill="currentColor" fill-rule="nonzero">
                        <path d="M9.42666666,7.37333334 C9.98666666,6.90666668 10.2666667,6.25333334 10.2666667,5.6 C10.2666667,4.29333334 9.24,3.26666666 7.93333334,3.26666666 C6.62666668,3.26666666 5.6,4.29333334 5.6,5.6 C5.6,6.25333334 5.88,6.90666666 6.44,7.37333334 C5.13333334,7.93333334 4.2,9.24 4.2,10.7333333 C4.2,11.0133333 4.38666666,11.2 4.66666666,11.2 C4.94666666,11.2 5.13333332,11.0133333 5.13333334,10.7333333 C5.13333334,9.14666668 6.34666668,7.93333334 7.93333334,7.93333334 C9.52,7.93333334 10.7333333,9.14666668 10.7333333,10.7333333 C10.7333333,11.0133333 10.92,11.2 11.2,11.2 C11.48,11.2 11.6666667,11.0133333 11.6666667,10.7333333 C11.6666667,9.24 10.7333333,7.93333334 9.42666666,7.37333334 L9.42666666,7.37333334 Z M7.93333334,7 C7.18666666,7 6.53333334,6.34666666 6.53333334,5.6 C6.53333334,4.85333334 7.18666668,4.2 7.93333334,4.2 C8.68,4.2 9.33333334,4.85333334 9.33333334,5.6 C9.33333334,6.34666666 8.68,7 7.93333334,7 L7.93333334,7 Z M11.6666667,0 L3.26666666,0 C1.96,0 0.933333338,1.02666666 0.933333338,2.33333334 L0.933333338,3.73333334 L0.466666662,3.73333334 C0.186666662,3.73333334 0,3.92 0,4.2 C0,4.48 0.186666662,4.66666666 0.466666662,4.66666666 L0.933333338,4.66666666 L0.933333338,6.53333334 L0.466666662,6.53333334 C0.186666662,6.53333334 0,6.72 0,7 C0,7.28 0.186666662,7.46666666 0.466666662,7.46666666 L0.933333338,7.46666666 L0.933333338,9.33333334 L0.466666662,9.33333334 C0.186666662,9.33333334 0,9.52 0,9.8 C0,10.08 0.186666662,10.2666667 0.466666662,10.2666667 L0.933333338,10.2666667 L0.933333338,11.6666667 C0.933333338,12.9733333 1.96,14 3.26666666,14 L11.6666667,14 C12.9733333,14 14,12.9733333 14,11.6666667 L14,2.33333334 C14,1.02666666 12.9733333,0 11.6666667,0 Z M13.0666667,11.6666667 C13.0666667,12.4133333 12.4133333,13.0666667 11.6666667,13.0666667 L3.26666666,13.0666667 C2.52,13.0666667 1.86666666,12.4133333 1.86666666,11.6666667 L1.86666666,10.2666667 L2.33333334,10.2666667 C2.61333334,10.2666667 2.8,10.08 2.8,9.8 C2.8,9.52 2.61333334,9.33333334 2.33333334,9.33333334 L1.86666666,9.33333334 L1.86666666,7.46666666 L2.33333334,7.46666666 C2.61333334,7.46666666 2.8,7.28 2.8,7 C2.8,6.72 2.61333334,6.53333334 2.33333334,6.53333334 L1.86666666,6.53333334 L1.86666666,4.66666666 L2.33333334,4.66666666 C2.61333334,4.66666666 2.8,4.48 2.8,4.2 C2.8,3.92 2.61333334,3.73333334 2.33333334,3.73333334 L1.86666666,3.73333334 L1.86666666,2.33333334 C1.86666666,1.58666666 2.52,0.933333338 3.26666666,0.933333338 L11.6666667,0.933333338 C12.4133333,0.933333338 13.0666667,1.58666668 13.0666667,2.33333334 L13.0666667,11.6666667 Z" id="Shape"></path>
                    </g>
                </g>
            </g>
        </g>
    </g>
</svg>